<?xml version="1.0" ?><svg viewBox="0 0 60 60" xmlns="http://www.w3.org/2000/svg"><title/><g id="text"><text font-family="MyriadPro-Regular, Myriad Pro" font-size="9" transform="translate(10.17432 67.39014)"><tspan letter-spacing="0.00401em" x="6.54297" y="0"/><tspan x="9.52197" y="0"/><tspan letter-spacing="-0.03299em" x="12.3208" y="10.7998"/><tspan x="19.6377" y="10.7998"/></text></g><g data-name="Layer 1" id="Layer_1"><path d="M10.10876,49.68341A21.20947,21.20947,0,0,1,17.59961,37.7998.99988.99988,0,0,0,17,36H11.11719c.57715-2.39893,3.24609-4,6.88281-4a1.00074,1.00074,0,0,0,.92871-.62842C20.93848,26.34668,23.76074,23,31,23a.99894.99894,0,0,0,.874-.51416c3.28125-5.90576,6.38477-8.33105,7.21777-8.02832.01465.00537,1.46973.63574-.07227,8.34619a.99985.99985,0,0,0,1.6875.90332,8.21923,8.21923,0,0,1,1.80176-1.47559,15.42545,15.42545,0,0,1-2.40332,6.32129c-6.373,12.74658-6.22559,21.60645-6.12793,27.46875.01.59265.01666,1.14624.01917,1.68866a27.90935,27.90935,0,0,1-23.88794-8.02673Zm25.884,7.66412c-.004-.44476-.00726-.88251-.0152-1.35925-.10059-6.00635-.2373-14.23242,5.87988-26.47363,1.49414-2.48975,3.82031-7.5874,1.93164-9.062a2.048,2.048,0,0,0-2.34668.08643c.68164-4.74707.13965-7.29687-1.66113-7.959-2.77441-1.02-6.71,3.79248-9.36914,8.42725-8.06152.20166-11.20117,4.55811-13.08887,9.00879C12.38867,30.25049,9,33.05615,9,37a.99974.99974,0,0,0,1,1h4.335A23.8973,23.8973,0,0,0,8.4978,47.91125a27.98986,27.98986,0,1,1,27.49493,9.43628Z"/></g></svg>