<?xml version="1.0" standalone="no"?>
<!DOCTYPE svg PUBLIC "-//W3C//DTD SVG 20010904//EN"
 "http://www.w3.org/TR/2001/REC-SVG-20010904/DTD/svg10.dtd">
<svg version="1.0" xmlns="http://www.w3.org/2000/svg"
 width="700.000000pt" height="700.000000pt" viewBox="0 0 700.000000 700.000000"
 preserveAspectRatio="xMidYMid meet">
<metadata>
Created by potrace 1.11, written by Peter Selinger 2001-2013
</metadata>
<g transform="translate(0.000000,700.000000) scale(0.100000,-0.100000)"
fill="#000000" stroke="none">
<path d="M321 6764 c-157 -42 -278 -170 -311 -327 -12 -62 -6 -235 14 -397 3
-19 10 -78 16 -130 6 -52 15 -117 20 -145 6 -27 12 -66 14 -85 3 -19 14 -80
25 -135 11 -55 22 -111 25 -125 10 -52 35 -156 45 -188 5 -18 10 -35 10 -37 0
-3 3 -15 6 -28 4 -13 7 -30 9 -38 29 -155 240 -753 335 -950 l21 -43 -69 -121
c-86 -150 -159 -296 -223 -445 -69 -161 -138 -345 -145 -384 -6 -40 19 -89 54
-105 14 -6 89 -11 180 -11 143 0 155 -1 150 -17 -3 -10 -48 -144 -101 -298
-127 -374 -233 -724 -348 -1145 -44 -163 -49 -188 -39 -221 13 -43 51 -71 95
-71 17 1 131 35 254 76 122 41 222 71 222 67 0 -4 -23 -73 -51 -152 -90 -257
-199 -615 -199 -656 0 -52 47 -103 96 -103 9 0 107 25 217 55 111 31 258 67
327 81 155 32 144 30 210 39 30 4 64 9 75 11 100 19 245 28 245 15 0 -6 -9
-46 -21 -89 -48 -177 -57 -237 -43 -270 13 -31 58 -62 91 -62 10 0 239 67 508
150 270 82 493 150 497 150 3 0 26 -19 49 -41 186 -178 399 -291 654 -344 107
-23 351 -28 472 -9 273 41 521 164 711 351 24 24 47 43 51 43 4 0 137 -40 296
-89 577 -177 691 -211 708 -211 28 0 75 28 88 51 17 33 13 74 -25 224 -20 77
-36 144 -36 148 0 5 37 5 83 2 212 -17 521 -77 811 -160 87 -25 167 -45 178
-45 50 0 98 50 98 101 0 44 -124 450 -206 675 -24 67 -44 126 -44 132 0 11 10
9 220 -63 101 -35 170 -57 236 -74 45 -12 90 10 111 54 17 35 16 39 -14 158
-94 362 -283 985 -408 1342 -29 83 -56 160 -60 173 l-6 22 155 0 c90 0 165 5
179 11 28 12 57 58 57 88 0 27 -83 252 -150 406 -76 175 -240 491 -281 541 -5
7 18 75 62 180 39 93 75 180 80 194 4 14 27 77 49 140 83 231 199 632 224 775
3 17 14 73 25 125 11 52 22 111 24 130 3 19 15 96 26 170 11 74 23 167 26 206
3 39 7 80 9 91 3 11 7 74 11 140 11 179 -17 269 -115 376 -49 54 -137 108
-200 123 -52 13 -169 12 -216 0 -118 -33 -351 -129 -584 -243 -109 -53 -213
-96 -275 -113 -291 -82 -433 -121 -457 -125 -15 -3 -38 -9 -52 -15 -15 -5 -26
-7 -26 -5 0 2 -11 0 -25 -5 -21 -8 -248 -62 -315 -75 -12 -2 -29 -6 -38 -9 -9
-3 -28 -7 -42 -10 -14 -3 -106 -20 -205 -40 -99 -19 -200 -38 -225 -41 -25 -3
-52 -8 -60 -10 -8 -2 -35 -6 -60 -9 -25 -3 -54 -8 -65 -10 -11 -2 -54 -7 -95
-11 -41 -4 -84 -9 -95 -11 -114 -22 -578 -22 -692 0 -12 3 -53 8 -90 11 -37 4
-79 8 -93 10 -14 3 -43 7 -65 10 -22 4 -80 13 -130 21 -49 9 -103 17 -120 19
-96 13 -494 102 -775 173 -434 110 -579 156 -726 229 -184 91 -258 124 -418
187 -217 87 -301 101 -415 70z m167 -198 c46 -9 362 -140 518 -216 88 -42 225
-114 305 -160 154 -88 433 -271 486 -319 72 -63 93 -176 50 -261 -22 -42 -51
-70 -250 -243 -74 -64 -90 -102 -66 -157 16 -34 66 -62 101 -56 12 3 26 5 29
5 4 1 56 42 115 92 215 179 259 235 288 357 34 147 -10 299 -117 404 -32 32
-44 49 -32 45 11 -3 49 -12 85 -21 211 -49 338 -78 358 -82 12 -2 33 -6 47 -8
14 -3 33 -7 43 -10 9 -3 29 -7 45 -10 15 -3 53 -10 85 -15 31 -6 71 -13 87
-15 17 -3 68 -12 115 -20 47 -8 112 -17 145 -21 33 -4 71 -8 85 -11 194 -34
790 -40 910 -9 13 3 64 10 160 20 14 1 39 5 55 8 17 4 47 9 68 12 20 3 54 8
75 11 55 9 280 51 332 63 25 5 61 13 80 16 37 6 360 82 395 92 13 4 3 -10 -26
-38 -110 -106 -155 -253 -124 -404 25 -119 78 -190 245 -326 102 -83 142 -121
341 -319 426 -423 733 -850 971 -1349 56 -116 148 -331 148 -344 0 -2 -66 -3
-147 -2 -82 1 -160 -3 -176 -8 -37 -12 -67 -53 -67 -92 0 -17 30 -114 66 -216
166 -466 448 -1379 425 -1379 -3 0 -114 36 -246 80 -131 44 -247 80 -258 80
-48 0 -96 -48 -97 -96 0 -17 25 -98 56 -180 97 -256 223 -649 210 -652 -7 -1
-39 4 -72 13 -83 23 -82 22 -159 40 -154 34 -338 68 -440 81 -27 3 -61 8 -75
10 -14 3 -95 7 -180 11 l-155 5 -27 -25 c-15 -14 -30 -37 -34 -51 -5 -22 40
-239 61 -288 5 -12 3 -18 -7 -18 -7 0 -117 32 -243 71 -366 112 -418 128 -446
134 l-27 7 58 111 c31 62 67 144 79 182 66 212 66 216 66 715 0 245 -3 463 -7
485 -4 22 -10 58 -13 80 -11 74 -66 239 -107 320 -84 168 -224 346 -280 357
-45 9 -95 -19 -112 -63 -20 -50 -12 -71 62 -162 77 -95 94 -120 137 -206 59
-117 95 -238 111 -366 9 -77 9 -734 0 -798 -40 -283 -327 -498 -641 -481 -99
5 -192 30 -277 73 l-73 37 -1 62 -2 61 37 6 c127 21 264 113 328 223 117 199
88 440 -73 598 -104 102 -191 135 -368 140 -198 6 -311 -32 -421 -141 -153
-153 -187 -376 -87 -571 67 -131 217 -233 373 -253 4 -1 6 -29 5 -63 l-1 -62
-74 -38 c-209 -106 -464 -95 -659 28 -150 95 -240 235 -259 401 -10 84 -9 661
1 761 21 215 103 411 248 589 32 39 62 82 66 95 26 69 -35 141 -110 130 -79
-12 -255 -260 -334 -468 -29 -77 -60 -200 -70 -279 -11 -77 -11 -879 -1 -965
14 -120 66 -284 131 -413 l62 -122 -256 -78 c-357 -110 -448 -137 -458 -137
-5 0 6 60 24 132 38 148 39 156 22 192 -21 47 -51 58 -156 56 -54 -1 -113 -3
-132 -5 -80 -7 -157 -16 -180 -20 -14 -2 -45 -7 -70 -10 -25 -3 -52 -8 -60
-10 -8 -2 -33 -6 -55 -10 -61 -9 -274 -54 -330 -70 -27 -8 -61 -16 -75 -19
-14 -3 -39 -9 -57 -15 -23 -7 -31 -6 -28 2 91 291 151 468 206 616 71 188 76
211 59 255 -10 27 -56 56 -88 56 -11 0 -127 -36 -258 -80 -131 -44 -241 -79
-245 -78 -7 3 5 49 107 398 99 340 198 642 348 1065 41 114 44 152 16 188 -29
37 -60 43 -222 42 -82 0 -148 1 -148 2 0 9 86 215 125 298 134 291 284 540
497 830 4 6 49 62 99 125 81 103 117 145 253 295 50 56 61 93 42 140 -11 25
-26 40 -51 51 -57 23 -92 6 -172 -84 -113 -128 -136 -152 -143 -152 -8 0 -81
193 -139 368 -51 153 -93 298 -130 452 -26 110 -37 160 -56 260 -12 62 -35
199 -40 239 -11 89 -48 131 -113 131 -50 0 -102 -57 -97 -105 2 -22 13 -98 21
-155 6 -38 62 -324 70 -352 2 -10 6 -28 9 -39 28 -130 88 -338 145 -509 54
-159 64 -186 126 -342 32 -81 52 -143 48 -150 -5 -7 -45 -64 -90 -126 l-82
-112 -61 154 c-92 233 -222 628 -245 746 -2 14 -18 81 -35 150 -16 69 -32 141
-35 160 -5 31 -16 92 -30 155 -2 11 -7 47 -11 80 -3 32 -8 62 -10 65 -2 3 -6
34 -10 69 -4 34 -8 70 -10 80 -2 10 -6 53 -10 97 -4 43 -8 93 -10 109 -2 17
-4 67 -5 113 -2 98 22 157 82 205 39 31 119 57 153 51 11 -2 30 -6 43 -8z
m6187 -18 c80 -42 117 -116 115 -227 -1 -78 -2 -95 -15 -216 -3 -38 -9 -90
-11 -115 -3 -25 -11 -88 -19 -140 -8 -52 -16 -108 -19 -125 -7 -49 -46 -244
-68 -335 -24 -103 -23 -97 -32 -140 -37 -168 -137 -475 -238 -733 l-70 -177
-57 77 c-31 43 -72 99 -90 124 l-33 47 47 118 c101 254 165 440 224 659 41
147 97 385 107 455 3 19 9 53 14 75 5 22 12 63 15 90 4 28 11 70 15 94 8 45 8
49 -4 92 -8 30 -53 59 -90 59 -69 0 -97 -39 -115 -160 -10 -67 -53 -300 -66
-357 -3 -13 -7 -33 -10 -44 -47 -217 -157 -578 -237 -779 -17 -41 -34 -85 -39
-98 -9 -23 -9 -22 -41 15 -142 165 -475 496 -638 633 -68 58 -137 124 -153
146 -55 79 -45 201 22 272 16 16 84 68 152 114 314 216 667 401 1041 547 158
62 219 68 293 29z m-3036 -4589 c241 -78 261 -409 32 -521 -38 -19 -65 -23
-157 -25 -135 -2 -186 13 -253 73 -174 156 -91 443 140 482 58 10 195 5 238
-9z m-89 -1075 c134 -79 285 -115 455 -110 66 2 136 7 155 11 44 8 160 49 203
71 l32 17 -40 -49 c-150 -187 -388 -331 -615 -374 -30 -6 -68 -13 -85 -16 -39
-7 -282 -7 -315 1 -14 3 -43 8 -65 11 -123 19 -332 112 -446 200 -63 48 -186
169 -201 198 -9 16 -8 18 8 11 160 -68 243 -84 404 -81 152 4 248 27 370 90
47 25 87 45 90 45 3 0 25 -11 50 -25z"/>
<path d="M2105 3921 c-83 -22 -168 -90 -204 -164 -103 -213 32 -448 269 -465
110 -8 222 49 283 143 70 110 68 255 -5 356 -40 55 -61 73 -123 106 -54 28
-161 40 -220 24z m145 -220 c55 -39 66 -111 25 -159 -43 -51 -104 -61 -155
-23 -77 56 -56 174 34 200 37 11 62 6 96 -18z"/>
<path d="M4696 3905 c-188 -77 -258 -303 -147 -470 43 -64 78 -92 154 -123
137 -55 297 -2 382 126 78 119 60 293 -43 397 -87 89 -231 118 -346 70z m158
-189 c44 -18 76 -61 76 -102 0 -107 -127 -157 -201 -78 -19 20 -24 37 -24 74
0 56 28 94 79 109 17 5 32 10 34 10 1 1 17 -5 36 -13z"/>
</g>
</svg>
